<svg width="661" height="758" viewBox="0 0 661 758" fill="none" xmlns="http://www.w3.org/2000/svg">
<path d="M395.929 301.53L413.429 281.53C413.429 281.53 411.865 268.238 416.429 262.03C421.456 255.192 436.429 253.53 436.429 253.53L441.429 246.53C441.429 246.53 440.114 232.829 444.929 226.53C450.083 219.787 464.929 218.03 464.929 218.03L470.429 212.03C470.429 212.03 468.478 199.628 472.429 193.53C477.378 185.891 493.929 184.53 493.929 184.53L498.929 177.03C498.929 177.03 497.301 164.539 501.429 158.53C506.542 151.088 522.929 150.03 522.929 150.03L528.429 142.53C528.429 142.53 526.363 130.053 530.429 124.03C535.544 116.453 552.429 116.03 552.429 116.03L559.429 107.53M413.429 316.03L429.929 294.03C429.929 294.03 442.41 292.414 447.429 287.03C452.825 281.243 452.929 267.53 452.929 267.53L459.929 259.03C459.929 259.03 473.218 258.059 477.929 251.53C483.701 243.53 481.429 232.53 481.429 232.53L487.429 225.03C487.429 225.03 500.208 225.125 505.429 220.03C511.431 214.172 509.929 199.03 509.929 199.03L516.929 190.53C516.929 190.53 530.714 189.305 535.929 183.53C541.74 177.094 538.929 162.53 538.929 162.53L544.929 155.03C544.929 155.03 559.482 154.955 564.429 147.53C568.364 141.624 568.429 128.03 568.429 128.03L573.929 121.03M441.429 340.03L447.429 334.03C447.429 334.03 460.462 332.473 464.929 326.53C469.309 320.702 467.429 308.03 467.429 308.03L472.429 300.03C472.429 300.03 486.602 298.881 491.429 292.53C496.074 286.417 493.929 273.03 493.929 273.03L498.929 267.53C498.929 267.53 514.176 265.923 519.429 259.03C524.234 252.723 522.929 239.03 522.929 239.03L528.429 232.53C528.429 232.53 542.209 231.062 547.429 225.03C552.326 219.371 552.429 206.53 552.429 206.53L559.429 199.03C559.429 199.03 571.38 196.173 575.929 190.53C580.833 184.445 580.429 171.03 580.429 171.03L597.429 150.03" stroke="#A974FC" stroke-width="5" stroke-linecap="round" stroke-linejoin="round"/>
<path d="M32.429 662.53C33.9749 670.329 40.429 678.03 40.429 678.03C40.429 678.03 36.8709 683.195 33.929 685.53C30.5607 688.203 24.9288 693.53 24.9288 693.53C24.9288 693.53 18.0283 700.524 16.929 705.53C16.4264 707.818 16.4288 709.53 16.4288 709.53L7.42884 721.53C7.42884 721.53 4.14997 725.465 3.42884 728.53C2.84745 731.001 2.86674 732.554 3.42884 735.03C4.53628 739.907 7.73751 741.656 11.4288 745.03C17.1685 750.276 21.2579 753.255 28.9288 754.53C32.7812 755.17 35.3043 755.984 38.9288 754.53C41.141 753.642 40.9288 754.53 43.9288 751.03C46.9288 747.53 48.3541 744.123 53.9288 741.03C56.4671 739.622 58.4728 740.077 60.9288 738.53C64.2082 736.464 67.4288 731.03 67.4288 731.03C70.3578 727.32 72.9288 724.03 74.4288 721.53C75.9288 719.03 75.8328 716.64 77.9288 714.53C79.227 713.223 80.2105 712.694 81.9288 712.03C86.7514 710.167 94.9288 714.53 94.9288 714.53C94.9288 714.53 102.736 715.872 107.429 714.53C111.295 713.424 116.429 709.53 116.429 709.53C116.429 709.53 131.181 691.957 140.429 680.53C145.148 674.698 147.974 671.566 152.429 665.53L152.868 664.934C155.015 662.027 156.348 660.221 158.429 657.03C162.344 651.024 163.724 647.167 167.429 641.03C173.391 631.155 177.337 625.996 183.929 616.53C230.978 548.97 322.429 459.03 322.429 459.03C322.429 459.03 295.629 438.851 278.929 425.53C265.932 415.162 260.305 408.632 247.929 397.53C230.746 418.228 202.429 451.03 202.429 451.03L177.929 481.03L164.429 498.53L151.929 511.53L134.929 533.03L113.929 556.53L99.4288 572.53L86.4288 584.53L74.9288 594.53L64.9288 605.03L46.9288 626.53C46.9288 626.53 34.3778 638.435 32.429 647.53C30.929 654.53 31.1381 656.018 32.429 662.53Z" fill="#6564F8"/>
<path fill-rule="evenodd" clip-rule="evenodd" d="M233.429 383.03C238.847 388.926 242.852 391.672 247.929 397.53C260.305 408.632 265.932 415.162 278.929 425.53C295.629 438.851 322.429 459.03 322.429 459.03C322.429 459.03 343.07 474.176 358.429 479.03C363.216 480.543 365.91 481.912 370.929 482.03C374.27 482.108 379.429 481.03 379.429 481.03L645.929 158.53C645.929 158.53 651.552 151.817 654.429 147.03C655.689 144.933 656.814 143.898 657.429 141.53C658.421 137.708 657.013 135.327 655.929 131.53C655.182 128.915 654.585 127.491 653.429 125.03C651.677 121.302 650.19 119.473 647.929 116.03C644.477 110.774 642.475 107.843 638.429 103.03C633.276 96.8995 629.737 94.0431 623.929 88.5299C614.896 79.956 609.452 75.5558 599.929 67.5299C590.695 59.7474 583.154 53.6925 575.929 48.0299L557.429 33.5299C557.429 33.5299 547.316 25.8428 540.429 21.5299C531.929 16.2071 516.929 8.52988 516.929 8.52988C516.929 8.52988 508.428 4.35861 502.429 3.52989C498.754 3.02223 493.201 2.94392 492.429 3.02986C492.172 3.05842 486.173 2.79818 483.929 5.52989C377.929 134.53 213.929 336.03 213.929 336.03C213.929 336.03 211.118 340.69 210.429 344.03C209.758 347.281 209.689 349.294 210.429 352.53C211.503 357.231 216.929 363.03 216.929 363.03C216.929 363.03 226.578 375.574 233.429 383.03ZM354.429 290.53C340.008 278.251 318.429 258.03 318.429 258.03L330.429 239.03C330.429 239.03 329.125 224.972 334.429 219.03C339.406 213.455 350.929 215.53 350.929 215.53C350.929 215.53 351.58 211.53 353.929 208.53C355.929 205.976 359.429 204.53 359.429 204.53C359.429 204.53 356.376 191.325 361.429 186.03C366.04 181.198 377.929 181.53 377.929 181.53C377.929 181.53 378.451 178.318 379.429 176.53C380.754 174.107 384.429 171.53 384.429 171.53C384.429 171.53 383.558 158.171 388.929 153.03C393.618 148.542 404.929 148.53 404.929 148.53C404.929 148.53 406.137 145.29 407.429 143.53C408.984 141.412 412.429 139.03 412.429 139.03C412.429 139.03 410.568 126.882 414.929 121.53C419.69 115.687 433.429 116.03 433.429 116.03C433.429 116.03 434.161 113.216 434.929 111.53C436.096 108.967 438.929 105.53 438.929 105.53C438.929 105.53 437.157 95.9831 439.929 91.0299C442.371 86.6656 445.179 84.5961 449.929 83.0299C454.194 81.6235 461.429 83.0299 461.429 83.0299C461.429 83.0299 463.189 78.8284 464.929 76.5299C467.782 72.7614 474.429 69.0299 474.429 69.0299C474.429 69.0299 475.776 63.6377 477.429 60.5299C480.671 54.4349 489.929 48.0299 489.929 48.0299C489.929 48.0299 515.999 59.4476 531.429 69.0299C555.811 84.1711 568.263 95.1258 587.929 116.03C598.67 127.447 613.429 147.03 613.429 147.03L603.929 156.03C603.929 156.03 604.649 159.8 603.929 162.03C602.953 165.055 598.429 168.03 598.429 168.03C598.429 168.03 600.697 180.067 596.929 186.03C592.637 192.822 578.429 195.03 578.429 195.03L571.429 202.53C571.429 202.53 573.395 215.893 568.429 221.53C563.57 227.045 550.429 227.03 550.429 227.03L543.929 235.53C543.929 235.53 545.687 248.468 540.929 254.03C536.352 259.38 523.929 260.03 523.929 260.03L516.429 268.53C516.429 268.53 517.293 280.852 512.929 286.53C508.457 292.347 495.929 294.53 495.929 294.53L489.929 303.03C489.929 303.03 490.672 314.155 486.929 319.53C482.283 326.2 467.929 328.03 467.929 328.03C467.929 328.03 457.725 341.84 449.929 349.53C446.188 353.219 439.929 358.53 439.929 358.53C439.929 358.53 423.568 344.702 412.929 336.03C390.495 317.743 376.465 309.293 354.429 290.53Z" fill="#6564F8"/>
<path d="M247.929 397.53C230.746 418.228 202.429 451.03 202.429 451.03L177.929 481.03L164.429 498.53L151.929 511.53L134.929 533.03L113.929 556.53L99.4288 572.53L86.4288 584.53L74.9288 594.53L64.9288 605.03L46.9288 626.53C46.9288 626.53 34.3778 638.435 32.429 647.53C30.929 654.53 31.1381 656.018 32.429 662.53C33.9749 670.329 40.429 678.03 40.429 678.03C40.429 678.03 36.8709 683.195 33.929 685.53C30.5607 688.203 24.9288 693.53 24.9288 693.53C24.9288 693.53 18.0283 700.524 16.929 705.53C16.4264 707.818 16.4288 709.53 16.4288 709.53L7.42884 721.53C7.42884 721.53 4.14997 725.465 3.42884 728.53C2.84745 731.001 2.86674 732.554 3.42884 735.03C4.53628 739.907 7.73751 741.656 11.4288 745.03C17.1685 750.276 21.2579 753.255 28.9288 754.53C32.7812 755.17 35.3043 755.984 38.9288 754.53C41.141 753.642 40.9288 754.53 43.9288 751.03C46.9288 747.53 48.3541 744.123 53.9288 741.03C56.4671 739.622 58.4728 740.077 60.9288 738.53C64.2082 736.464 67.4288 731.03 67.4288 731.03C70.3578 727.32 72.9288 724.03 74.4288 721.53C75.9288 719.03 75.8328 716.64 77.9288 714.53C79.227 713.223 80.2105 712.694 81.9288 712.03C86.7514 710.167 94.9288 714.53 94.9288 714.53C94.9288 714.53 102.736 715.872 107.429 714.53C111.295 713.424 116.429 709.53 116.429 709.53C116.429 709.53 131.181 691.957 140.429 680.53C145.148 674.698 147.974 671.566 152.429 665.53M247.929 397.53C242.852 391.672 238.847 388.926 233.429 383.03C226.578 375.574 216.929 363.03 216.929 363.03C216.929 363.03 211.503 357.231 210.429 352.53C209.689 349.294 209.758 347.281 210.429 344.03C211.118 340.69 213.929 336.03 213.929 336.03C213.929 336.03 377.929 134.53 483.929 5.52989C486.173 2.79818 492.172 3.05842 492.429 3.02986C493.201 2.94392 498.754 3.02223 502.429 3.52989C508.428 4.35861 516.929 8.52988 516.929 8.52988C516.929 8.52988 531.929 16.2071 540.429 21.5299C547.316 25.8428 557.429 33.5299 557.429 33.5299M247.929 397.53C260.305 408.632 265.932 415.162 278.929 425.53C295.629 438.851 322.429 459.03 322.429 459.03M557.429 33.5299C564.654 39.1925 568.704 42.3673 575.929 48.0299M557.429 33.5299L575.929 48.0299M575.929 48.0299C583.154 53.6925 590.695 59.7474 599.929 67.5299C609.452 75.5558 614.896 79.956 623.929 88.5299C629.737 94.0431 633.276 96.8995 638.429 103.03C642.475 107.843 644.477 110.774 647.929 116.03C650.19 119.473 651.677 121.302 653.429 125.03C654.585 127.491 655.182 128.915 655.929 131.53C657.013 135.327 658.421 137.708 657.429 141.53C656.814 143.898 655.689 144.933 654.429 147.03C651.552 151.817 645.929 158.53 645.929 158.53L379.429 481.03C379.429 481.03 374.27 482.108 370.929 482.03C365.91 481.912 363.216 480.543 358.429 479.03C343.07 474.176 322.429 459.03 322.429 459.03M322.429 459.03C322.429 459.03 230.978 548.97 183.929 616.53C177.337 625.996 173.391 631.155 167.429 641.03C163.724 647.167 162.344 651.024 158.429 657.03C156.348 660.221 155.015 662.027 152.868 664.934M152.429 665.53L152.868 664.934M152.429 665.53C152.579 665.326 152.726 665.128 152.868 664.934M474.429 69.0299C474.429 69.0299 475.776 63.6377 477.429 60.5299C480.671 54.4349 489.929 48.0299 489.929 48.0299C489.929 48.0299 515.999 59.4476 531.429 69.0299C555.811 84.1711 568.263 95.1258 587.929 116.03C598.67 127.447 613.429 147.03 613.429 147.03L603.929 156.03C603.929 156.03 604.649 159.8 603.929 162.03C602.953 165.055 598.429 168.03 598.429 168.03C598.429 168.03 600.697 180.067 596.929 186.03C592.637 192.822 578.429 195.03 578.429 195.03L571.429 202.53C571.429 202.53 573.395 215.893 568.429 221.53C563.57 227.045 550.429 227.03 550.429 227.03L543.929 235.53C543.929 235.53 545.687 248.468 540.929 254.03C536.352 259.38 523.929 260.03 523.929 260.03L516.429 268.53C516.429 268.53 517.293 280.852 512.929 286.53C508.457 292.347 495.929 294.53 495.929 294.53L489.929 303.03C489.929 303.03 490.672 314.155 486.929 319.53C482.283 326.2 467.929 328.03 467.929 328.03C467.929 328.03 457.725 341.84 449.929 349.53C446.188 353.219 439.929 358.53 439.929 358.53C439.929 358.53 423.568 344.702 412.929 336.03C390.495 317.743 376.465 309.293 354.429 290.53C340.008 278.251 318.429 258.03 318.429 258.03L330.429 239.03C330.429 239.03 329.125 224.972 334.429 219.03C339.406 213.455 350.929 215.53 350.929 215.53M474.429 69.0299C474.429 69.0299 467.782 72.7614 464.929 76.5299C463.189 78.8284 461.429 83.0299 461.429 83.0299M474.429 69.0299L479.429 67.0298H484.429L488.429 61.0298M461.429 83.0299C461.429 83.0299 454.194 81.6235 449.929 83.0299C445.179 84.5961 442.371 86.6656 439.929 91.0299C437.157 95.9831 438.929 105.53 438.929 105.53M461.429 83.0299V88.5298L463.429 93.5298L456.929 100.53L447.429 102.03L438.929 105.53M438.929 105.53C438.929 105.53 436.096 108.967 434.929 111.53C434.161 113.216 433.429 116.03 433.429 116.03M433.429 116.03C433.429 116.03 419.69 115.687 414.929 121.53C410.568 126.882 412.429 139.03 412.429 139.03M433.429 116.03L432.429 122.03L433.429 128.53L427.929 135.03L419.929 135.53L412.429 139.03M412.429 139.03C412.429 139.03 408.984 141.412 407.429 143.53C406.137 145.29 404.929 148.53 404.929 148.53M404.929 148.53C404.929 148.53 393.618 148.542 388.929 153.03C383.558 158.171 384.429 171.53 384.429 171.53M404.929 148.53V155.53L405.929 162.53L400.929 168.03L392.429 168.53L384.429 171.53M384.429 171.53C384.429 171.53 380.754 174.107 379.429 176.53C378.451 178.318 377.929 181.53 377.929 181.53C377.929 181.53 366.04 181.198 361.429 186.03C356.376 191.325 359.429 204.53 359.429 204.53M359.429 204.53C359.429 204.53 355.929 205.976 353.929 208.53C351.58 211.53 350.929 215.53 350.929 215.53M359.429 204.53C359.429 204.53 362.668 203.5 365.429 203.53C368.929 203.567 371.929 204.53 371.929 204.53L377.929 197.03L377.429 189.53L377.929 182.03M350.929 215.53C350.929 215.53 350.429 217.929 350.429 221.53C350.429 225.53 351.429 230.03 351.429 230.03L333.429 251.03M326.929 250.53C326.929 250.53 359.156 277.438 379.929 294.53C405.009 315.166 444.429 347.03 444.429 347.03M485.429 58.0298C485.429 58.0298 524.526 76.7986 546.429 93.5298C571.227 112.472 602.429 150.53 602.429 150.53M376.429 288.53L380.429 283.03C380.429 283.03 392.723 282.039 397.929 277.03C404.584 270.627 403.429 254.03 403.429 254.03L408.929 248.03C408.929 248.03 421.772 246.534 426.929 241.03C432.953 234.6 431.929 219.03 431.929 219.03L437.429 213.53C437.429 213.53 451.082 212.356 456.429 206.53C462.488 199.928 460.929 184.03 460.929 184.03L465.929 178.03C465.929 178.03 479.499 177.188 484.929 171.53C491.029 165.173 489.929 149.53 489.929 149.53L494.929 144.53C494.929 144.53 509.683 142.701 514.929 136.03C519.853 129.769 518.929 116.03 518.929 116.03L537.929 92.0298M358.429 274.53L363.929 268.53C363.929 268.53 362.276 255.171 366.929 249.03C371.9 242.469 386.429 241.03 386.429 241.03L391.929 234.03C391.929 234.03 390.971 219.645 396.429 213.53C401.572 207.767 414.929 206.53 414.929 206.53L420.429 199.53C420.429 199.53 419.11 187.512 422.929 181.53C427.628 174.17 442.929 171.53 442.929 171.53L448.929 164.53C448.929 164.53 447.998 150.785 452.929 144.53C458.072 138.006 472.429 136.03 472.429 136.03L476.929 130.03C476.929 130.03 475.929 116.03 481.429 109.53C486.536 103.495 501.429 102.03 501.429 102.03L518.929 79.5298M242.429 322.03C242.429 322.03 282.329 364.494 310.987 388.345C340.915 413.253 392.429 446.03 392.429 446.03M236 330C236 330 275.9 372.464 304.558 396.315C334.486 421.223 386 454 386 454M229 338C229 338 268.9 380.464 297.558 404.315C327.486 429.223 379 462 379 462" stroke="#A974FC" stroke-width="5" stroke-linecap="round" stroke-linejoin="round"/>
<path d="M367.929 314.53C340.704 292.284 306 264 305 262C304 260 302 259 302 248.5C302 244.005 303.001 240.352 306 236.5C364 162 471.429 32.5298 471.429 32.5298C477.429 26.0298 482.929 29.0298 482.929 29.0298C482.929 29.0298 538.08 60.4595 569.429 86.0298C593.936 106.019 627.929 142.03 627.929 142.03C627.929 142.03 633.41 148.516 633.679 153.53C634.004 159.591 626.929 167.53 626.929 167.53L539.429 275.03L471.429 360.03C471.429 360.03 463.429 370.53 456.929 373.53C450.429 376.53 442.929 372.03 442.929 372.03C442.929 372.03 396.508 337.883 367.929 314.53Z" stroke="#A974FC" stroke-width="5" stroke-linecap="round" stroke-linejoin="round"/>
</svg>
