<?xml version="1.0" standalone="no"?>
<!DOCTYPE svg PUBLIC "-//W3C//DTD SVG 20010904//EN"
 "http://www.w3.org/TR/2001/REC-SVG-20010904/DTD/svg10.dtd">
<svg version="1.0" xmlns="http://www.w3.org/2000/svg"
 width="1024.000000pt" height="1024.000000pt" viewBox="0 0 1024.000000 1024.000000"
 preserveAspectRatio="xMidYMid meet">

<g transform="translate(0.000000,1024.000000) scale(0.100000,-0.100000)"
fill="#000000" stroke="none">
<path d="M6511 8777 c-42 -11 -88 -68 -96 -119 -3 -24 -5 -326 -3 -673 l3
-630 100 -7 c274 -20 579 -101 844 -224 52 -24 96 -44 98 -44 2 0 2 367 1 816
l-3 816 -37 34 c-21 19 -48 34 -60 35 -153 5 -825 2 -847 -4z"/>
<path d="M4920 7957 c-13 -7 -35 -28 -47 -46 l-23 -34 0 -515 0 -515 23 20
c30 29 152 108 262 171 102 59 308 150 423 188 88 29 308 84 334 84 17 0 18
18 18 270 0 303 -5 333 -65 370 -31 19 -48 20 -466 20 -327 0 -440 -3 -459
-13z"/>
<path d="M2635 7473 c-88 -16 -126 -115 -69 -182 71 -85 211 -18 190 91 -10
56 -69 100 -121 91z"/>
<path d="M3305 7136 c-17 -7 -43 -28 -58 -45 l-27 -33 0 -1319 0 -1319 361 0
362 0 -7 33 c-66 312 -66 655 0 968 56 268 189 596 320 789 l24 35 0 395 c0
451 1 446 -80 488 -44 22 -48 22 -455 22 -318 -1 -417 -4 -440 -14z"/>
<path d="M6230 7133 c-278 -27 -428 -56 -613 -119 -462 -157 -866 -467 -1137
-870 -177 -265 -280 -521 -342 -849 -19 -102 -22 -154 -22 -355 -1 -253 13
-370 69 -578 157 -586 568 -1094 1114 -1376 340 -175 747 -269 1100 -252 485
23 934 184 1299 466 532 411 856 1058 854 1706 0 88 -3 185 -6 215 -41 349
-140 654 -297 916 -313 520 -797 881 -1375 1027 -137 34 -256 54 -408 66 -126
10 -165 10 -236 3z m270 -273 c397 -35 778 -193 1085 -450 226 -189 432 -463
540 -717 224 -533 212 -1094 -35 -1598 -142 -289 -328 -512 -586 -704 -605
-449 -1378 -521 -2039 -189 -591 296 -987 845 -1071 1482 -23 175 -14 457 20
621 142 677 647 1245 1298 1460 276 90 513 119 788 95z"/>
<path d="M7332 6115 c-165 -51 -249 -218 -193 -383 l22 -64 -178 -272 -178
-272 -77 4 c-69 4 -84 2 -131 -22 -29 -14 -64 -37 -76 -50 l-23 -25 -173 87
-173 86 -7 45 c-22 157 -158 270 -312 258 -164 -13 -276 -138 -278 -309 l0
-77 -135 -127 c-74 -70 -170 -160 -212 -201 -72 -69 -78 -73 -100 -62 -36 20
-155 15 -209 -9 -136 -60 -202 -206 -160 -355 16 -56 86 -139 140 -166 87 -44
188 -44 278 0 101 49 158 145 155 259 l-1 65 212 205 212 206 50 -13 c59 -16
142 -5 201 25 l37 19 61 -29 c34 -16 130 -66 213 -111 134 -71 154 -84 163
-113 6 -18 29 -52 50 -77 110 -124 310 -122 424 4 66 73 90 164 67 246 -9 30
-2 43 103 206 62 95 154 235 205 309 l92 135 58 6 c144 13 252 135 255 287 1
55 -4 76 -31 131 -66 134 -211 198 -351 154z m123 -179 c39 -16 75 -68 75
-106 0 -37 -36 -89 -72 -104 -65 -28 -137 20 -145 95 -6 51 20 92 71 115 38
16 31 16 71 0z m-1520 -658 c68 -81 -15 -207 -115 -174 -40 13 -80 66 -80 106
0 40 40 93 80 106 44 15 81 2 115 -38z m859 -368 c54 -54 33 -145 -40 -176
-29 -12 -39 -12 -67 0 -90 37 -104 147 -25 196 44 28 92 20 132 -20z m-1729
-354 c61 -26 82 -102 46 -162 -55 -90 -193 -46 -193 62 0 41 26 82 63 101 31
16 42 16 84 -1z"/>
<path d="M7796 5514 c-25 -35 -153 -117 -217 -140 -28 -11 -58 -28 -65 -40
-12 -17 -14 -154 -12 -794 l3 -774 79 90 c79 89 165 211 224 315 l32 56 0 634
c0 349 -2 643 -3 653 -5 29 -20 29 -41 0z"/>
<path d="M7231 4842 c-18 -24 -39 -67 -47 -96 -34 -130 -135 -268 -228 -313
l-36 -17 0 -508 c0 -365 3 -508 11 -508 17 0 281 137 312 163 l27 22 -2 651
-3 651 -34 -45z"/>
<path d="M6003 4743 c-7 -2 -61 -10 -120 -16 l-108 -12 -3 -670 -2 -670 80
-23 c43 -13 122 -31 175 -41 l95 -18 -2 699 -3 699 -50 28 c-27 16 -55 27 -62
24z"/>
<path d="M6350 3900 l0 -622 73 6 c39 4 117 13 171 21 55 8 101 15 103 15 2 0
3 236 3 524 l0 523 -49 6 c-50 6 -162 57 -236 107 -22 14 -46 30 -52 34 -10 6
-13 -120 -13 -614z"/>
<path d="M5517 4341 c-15 -20 -50 -71 -78 -114 -58 -91 -113 -146 -186 -184
l-53 -28 0 -150 1 -150 47 -35 c25 -19 103 -72 172 -118 l125 -84 3 226 c1
124 1 327 0 449 l-3 224 -28 -36z"/>
<path d="M2136 6899 c-20 -16 -26 -29 -26 -60 0 -50 27 -79 74 -79 77 0 111
86 52 136 -33 29 -65 30 -100 3z"/>
<path d="M1760 6123 c-39 -12 -62 -29 -80 -59 -19 -30 -20 -53 -20 -838 l0
-806 525 0 525 0 0 806 c0 906 5 845 -75 884 -39 19 -62 20 -451 19 -225 0
-416 -3 -424 -6z"/>
<path d="M1294 4190 c-66 -27 -84 -117 -35 -172 l29 -33 1400 -3 1399 -2 -38
96 c-22 53 -39 102 -39 110 0 12 -197 14 -1347 13 -742 0 -1358 -4 -1369 -9z"/>
<path d="M8657 3931 c-56 -107 -72 -130 -95 -136 -63 -16 -92 -38 -133 -104
-23 -36 -48 -76 -56 -88 -13 -20 -11 -22 41 -46 115 -53 212 -174 242 -303 77
-324 -248 -628 -558 -523 -114 38 -211 118 -273 223 -26 45 -28 46 -49 32 -78
-55 -256 -162 -338 -202 -127 -63 -128 -68 -18 -204 92 -113 117 -126 175 -90
19 12 35 25 35 30 0 4 23 22 50 40 l51 32 61 -42 c33 -24 95 -58 137 -77 76
-33 76 -33 75 -70 -1 -21 -4 -65 -9 -98 -6 -51 -5 -63 12 -83 23 -29 78 -41
196 -42 136 0 162 21 156 126 -2 27 -2 65 -1 84 2 35 3 36 70 54 37 9 100 35
141 57 l74 40 26 -23 c14 -13 47 -44 72 -70 72 -76 81 -73 223 79 65 70 76 87
76 117 0 28 -6 39 -27 53 -38 23 -123 105 -123 118 0 5 11 37 25 70 13 33 32
92 40 132 19 82 21 83 128 83 62 0 71 3 98 29 16 16 29 38 29 48 -1 28 -29
233 -35 253 -8 27 -54 39 -106 29 -24 -4 -67 -8 -95 -9 -50 0 -51 0 -70 42
-10 24 -43 76 -71 116 l-53 73 19 38 c11 20 40 59 65 86 62 66 59 104 -12 157
-20 15 -57 43 -82 62 l-46 35 -67 -128z"/>
<path d="M2130 3580 c-27 -27 -26 -81 1 -106 13 -11 35 -19 59 -19 50 0 80 27
80 72 0 46 -29 73 -80 73 -27 0 -47 -7 -60 -20z"/>
<path d="M2492 3580 c-27 -25 -29 -70 -4 -99 15 -20 25 -22 92 -19 68 3 76 5
89 29 16 29 10 69 -15 93 -24 25 -134 22 -162 -4z"/>
<path d="M2892 3584 c-16 -11 -22 -25 -22 -53 0 -73 -16 -71 467 -71 479 0
457 -3 457 67 0 25 -7 41 -23 54 -22 18 -48 19 -440 19 -361 0 -420 -2 -439
-16z"/>
<path d="M4357 3412 c-42 -42 -77 -82 -77 -88 0 -9 196 -200 383 -372 l67 -63
40 32 c21 17 58 54 81 81 l41 49 -23 33 c-35 47 -407 406 -422 406 -7 0 -47
-35 -90 -78z"/>
<path d="M3979 3191 c-24 -16 -305 -291 -625 -612 -626 -629 -621 -624 -645
-753 -31 -170 68 -349 239 -429 54 -25 83 -32 153 -35 108 -5 192 20 277 83
79 59 1175 1162 1198 1205 24 47 24 125 -1 172 -25 45 -341 344 -397 376 -61
33 -141 31 -199 -7z m17 -353 c10 -20 12 -34 5 -46 -5 -9 -174 -181 -375 -381
l-364 -364 -34 9 c-27 8 -35 16 -42 48 l-10 37 375 375 c373 372 376 375 403
363 15 -7 34 -26 42 -41z"/>
<path d="M4893 2498 c-11 -5 -29 -25 -38 -42 -39 -72 15 -156 100 -156 37 0
47 5 75 37 28 32 32 41 27 77 -11 76 -92 119 -164 84z"/>
<path d="M5340 2280 c-47 -47 -4 -120 70 -120 51 0 80 27 80 73 0 47 -26 67
-83 67 -34 0 -53 -6 -67 -20z"/>
<path d="M5602 2284 c-29 -20 -30 -76 -2 -104 20 -20 33 -20 688 -20 744 0
712 -3 712 66 0 21 -8 42 -20 54 -20 20 -33 20 -688 20 -588 0 -670 -2 -690
-16z"/>
<path d="M7305 2041 c-56 -24 -84 -91 -61 -145 19 -45 52 -66 104 -66 128 0
139 196 12 214 -19 3 -44 2 -55 -3z"/>
</g>
</svg>
