<svg width="80" height="80" viewBox="0 0 80 80" fill="none" xmlns="http://www.w3.org/2000/svg">
<path d="M40 80C17.9086 80 7.8281e-07 62.0914 1.74846e-06 40C2.7141e-06 17.9086 17.9086 1.60416e-05 40 1.70072e-05C62.0914 1.79729e-05 80 17.9086 80 40C80 62.0914 62.0914 80 40 80Z" fill="white"/>
<path d="M77.4816 26C71.8066 10.8133 57.1661 1.78677e-05 40 1.71173e-05C22.8339 1.6367e-05 8.19338 10.8133 2.51843 26L77.4816 26Z" fill="#F30040"/>
<path d="M2.51844 54C8.19338 69.1867 22.8339 80 40 80C57.1661 80 71.8066 69.1867 77.4816 54L2.51844 54Z" fill="#14439E"/>
</svg>
