<svg width="904" height="924" viewBox="0 0 904 924" fill="none" xmlns="http://www.w3.org/2000/svg">
<path d="M0.898402 259.366C-1.59722 306.365 1.8984 923.866 1.8984 923.866H238.397V540.365C238.397 540.365 296.077 546.625 361.398 524.366V227.866C361.398 227.866 363.392 171.366 404.892 106.866C417.516 87.2457 434.027 71.1415 450.892 58.2299C489.468 28.6961 529.897 15.8666 529.897 15.8666L421.892 38.3665C364.095 6.44405 334.78 5.00885 296.713 3.14516C289.653 2.7995 282.292 2.4391 274.392 1.8667C272.672 1.74212 270.853 1.6647 268.942 1.63806C232.487 1.13011 145.178 9.07063 83.8916 70.3567C19.3911 134.857 3.39403 212.366 0.898402 259.366Z" fill="#6564F8"/>
<path fill-rule="evenodd" clip-rule="evenodd" d="M274.392 1.8667C272.672 1.74212 270.853 1.6647 268.942 1.63806C407.027 2.55747 514.392 -2.64339 648.398 1.86566C782.405 6.37471 900.509 31.8648 903.398 279.866C906.288 527.866 742.905 558.875 674.898 560.366C606.892 561.857 490.398 560.366 490.398 560.366V923.866H361.398V524.366C438.575 498.066 529.279 418.366 542.397 290.866C542.397 290.866 547.392 216.366 523.392 159.366C499.392 102.366 450.892 58.2299 450.892 58.2299C489.468 28.6961 529.897 15.8666 529.897 15.8666L421.892 38.3665C364.095 6.44405 334.78 5.00885 296.713 3.14516C289.653 2.7995 282.292 2.4391 274.392 1.8667Z" fill="#A974FC"/>
<path d="M238.397 540.365V923.866H361.398V524.366C296.077 546.625 238.397 540.365 238.397 540.365Z" fill="#A974FC"/>
<path d="M238.397 540.365V923.866H361.398V524.366C296.077 546.625 238.397 540.365 238.397 540.365Z" fill="#6564F8" fill-opacity="0.5"/>
</svg>
