<svg width="904" height="923" viewBox="0 0 904 923" fill="none" xmlns="http://www.w3.org/2000/svg">
<path d="M0.898402 257.749C-1.59722 304.748 1.8984 922.25 1.8984 922.25H238.397V538.749C238.397 538.749 296.077 545.009 361.398 522.75V226.25C361.398 226.25 363.392 169.75 404.892 105.25C417.516 85.6294 434.027 69.5253 450.892 56.6137C489.468 27.0799 529.897 14.2504 529.897 14.2504L421.892 36.7503C353.375 -1.09296 324.886 3.90899 274.392 0.25045C272.672 0.125866 270.853 0.0484518 268.942 0.0218122C232.487 -0.486144 145.178 7.45438 83.8916 68.7405C19.3911 133.241 3.39403 210.75 0.898402 257.749Z" fill="#6564F8"/>
<path d="M268.942 0.0218122C270.853 0.0484518 272.672 0.125866 274.392 0.25045C324.886 3.90899 353.375 -1.09296 421.892 36.7503L529.897 14.2504C529.897 14.2504 489.468 27.0799 450.892 56.6137C450.892 56.6137 499.392 100.75 523.392 157.75C547.392 214.75 542.397 289.25 542.397 289.25C529.279 416.75 438.575 496.449 361.398 522.75C296.077 545.009 238.397 538.749 238.397 538.749V922.25H490.398V558.75H674.898C674.898 558.75 906.288 526.25 903.398 278.249C900.509 30.2486 648.398 0.249412 648.398 0.249412C648.398 0.249412 407.027 0.941223 268.942 0.0218122Z" fill="#A974FC"/>
</svg>
