<svg width="666" height="924" viewBox="0 0 666 924" fill="none" xmlns="http://www.w3.org/2000/svg">
<path fill-rule="evenodd" clip-rule="evenodd" d="M35.9942 1.8667C34.2747 1.74212 32.456 1.6647 30.5442 1.63806C168.629 2.55747 275.994 -2.64339 410.001 1.86566C544.007 6.37471 662.112 31.8648 665.001 279.866C667.89 527.866 504.507 558.875 436.501 560.366C368.494 561.857 252.001 560.366 252.001 560.366V923.866H123V524.366C200.178 498.066 290.882 418.366 304 290.866C304 290.866 308.994 216.366 284.994 159.366C260.994 102.366 212.494 58.2299 212.494 58.2299C251.071 28.6961 291.5 15.8666 291.5 15.8666L183.494 38.3665C125.697 6.44405 96.3827 5.00885 58.316 3.14516C51.2557 2.7995 43.8943 2.4391 35.9942 1.8667Z" fill="#A974FC"/>
<path d="M0 540.365V923.866H123V524.366C57.6797 546.625 0 540.365 0 540.365Z" fill="#A974FC"/>
<path d="M0 540.365V923.866H123V524.366C57.6797 546.625 0 540.365 0 540.365Z" fill="#6564F8" fill-opacity="0.5"/>
</svg>
