<svg width="530" height="923" viewBox="0 0 530 923" fill="none" xmlns="http://www.w3.org/2000/svg">
<path d="M1.8984 922.25C1.8984 922.25 -1.59722 304.748 0.898402 257.749C3.39403 210.75 19.3911 133.241 83.8916 68.7405C145.178 7.45438 232.487 -0.486144 268.942 0.0218119C270.853 0.0484515 272.672 0.125865 274.392 0.250449C282.292 0.822845 289.653 1.18325 296.713 1.52891C334.78 3.3926 364.095 4.82779 421.892 36.7503L529.897 14.2504C529.897 14.2504 489.468 27.0799 450.892 56.6137C434.027 69.5253 417.516 85.6294 404.892 105.25C363.392 169.75 361.398 226.25 361.398 226.25V522.75V922.25H238.397H1.8984Z" fill="#6564F8"/>
</svg>
